<svg width="50" height="50" viewBox="0 0 50 50" fill="none" xmlns="http://www.w3.org/2000/svg">
<path d="M45 30H39.55C39.125 31.75 38.45 33.375 37.525 34.825L41.375 38.675L36.125 43.925L32.275 40.075C30.825 40.975 29.2 41.65 27.5 42.05V47.5H20V42.05C18.3 41.65 16.675 40.975 15.225 40.075L11.375 43.925L6.075 38.625L9.925 34.775C9.025 33.325 8.35 31.7 7.95 30H2.5V22.575H7.925C8.325 20.825 9.025 19.2 9.925 17.725L6.075 13.875L11.325 8.625L15.175 12.475C16.625 11.55 18.275 10.875 20 10.45V5H27.5V10.45C29.2 10.85 30.825 11.525 32.275 12.425L36.125 8.575L41.425 13.875L37.575 17.725C38.475 19.2 39.175 20.825 39.575 22.575H45V30ZM23.75 33.75C27.9 33.75 31.25 30.4 31.25 26.25C31.25 22.1 27.9 18.75 23.75 18.75C19.6 18.75 16.25 22.1 16.25 26.25C16.25 30.4 19.6 33.75 23.75 33.75Z" fill="#FFEDA8"/>
</svg>
