<svg width="50" height="50" viewBox="0 0 50 50" fill="none" xmlns="http://www.w3.org/2000/svg">
<path d="M10.4167 45.8334H39.5833C41.8812 45.8334 43.75 43.9647 43.75 41.6668V18.7501C43.75 18.1975 43.5305 17.6676 43.1398 17.2769C42.7491 16.8862 42.2192 16.6667 41.6667 16.6667H35.4167V14.5834C35.4167 8.83967 30.7437 4.16675 25 4.16675C19.2562 4.16675 14.5833 8.83967 14.5833 14.5834V16.6667H8.33333C7.7808 16.6667 7.25089 16.8862 6.86019 17.2769C6.46949 17.6676 6.25 18.1975 6.25 18.7501V41.6668C6.25 43.9647 8.11875 45.8334 10.4167 45.8334ZM18.75 14.5834C18.75 11.1376 21.5542 8.33342 25 8.33342C28.4458 8.33342 31.25 11.1376 31.25 14.5834V16.6667H18.75V14.5834ZM10.4167 20.8334H14.5833V25.0001H18.75V20.8334H31.25V25.0001H35.4167V20.8334H39.5833L39.5875 41.6668H10.4167V20.8334Z" fill="#FFEDA8"/>
</svg>
