<svg width="50" height="50" viewBox="0 0 50 50" fill="none" xmlns="http://www.w3.org/2000/svg">
<g clip-path="url(#clip0_740_2)">
<path d="M11.6818 32.5607L11.6815 32.5611C11.2269 33.3011 11 34.1061 11 34.9975V36.5125C11 37.2865 11.2641 37.9247 11.8206 38.4813C11.8206 38.4813 11.8206 38.4813 11.8207 38.4813M11.6818 32.5607L11.8207 38.4813M11.6818 32.5607C12.1394 31.8151 12.7367 31.2579 13.4835 30.8704M11.6818 32.5607L13.4835 30.8704M11.8207 38.4813C12.3755 39.0362 13.013 39.3 13.7875 39.3H36.5125C37.2868 39.3 37.925 39.0363 38.4813 38.4813M11.8207 38.4813L38.4813 38.4813M38.4813 38.4813C39.0363 37.925 39.3 37.2868 39.3 36.5125V34.9975C39.3 34.1061 39.0731 33.3011 38.6185 32.5611L38.6182 32.5607C38.1606 31.8151 37.5633 31.2579 36.8165 30.8704C34.9255 29.9254 33.01 29.2192 31.0691 28.7484L38.4813 38.4813ZM13.4835 30.8704C15.3743 29.9255 17.2897 29.2193 19.2304 28.7486L13.4835 30.8704ZM20.5073 22.2177L20.5073 22.2177C19.2099 20.9203 18.575 19.3908 18.575 17.575C18.575 15.7592 19.2099 14.2297 20.5073 12.9323L20.5073 12.9323C21.8047 11.6349 23.3342 11 25.15 11C26.9658 11 28.4953 11.6349 29.7927 12.9323L29.7927 12.9323C31.0901 14.2297 31.725 15.7592 31.725 17.575C31.725 19.3908 31.0901 20.9203 29.7927 22.2177L29.7927 22.2177C28.4953 23.5152 26.9658 24.15 25.15 24.15C23.3342 24.15 21.8047 23.5152 20.5073 22.2177ZM30.4998 22.9248C29.0164 24.4083 27.2331 25.15 25.15 25.15C23.0669 25.15 21.2836 24.4083 19.8002 22.9248C18.3167 21.4414 17.575 19.6581 17.575 17.575C17.575 15.4919 18.3167 13.7086 19.8002 12.2252C21.2836 10.7417 23.0669 10 25.15 10C27.2331 10 29.0164 10.7417 30.4998 12.2252V22.9248ZM19.2306 28.7485C21.1734 28.2786 23.146 28.0437 25.15 28.0437C27.1539 28.0437 29.1264 28.2786 31.069 28.7484L19.2306 28.7485Z" stroke="#FFEDA8" stroke-width="2"/>
<path d="M25 1C38.2548 1 49 11.7452 49 25C49 38.2548 38.2548 49 25 49C11.7452 49 1 38.2548 1 25C1 11.7452 11.7452 1 25 1Z" stroke="#FFEDA8" stroke-width="2"/>
</g>
<defs>
<clipPath id="clip0_740_2">
<rect width="50" height="50" fill="white"/>
</clipPath>
</defs>
</svg>
