<svg width="50" height="50" viewBox="0 0 50 50" fill="none" xmlns="http://www.w3.org/2000/svg">
<g clip-path="url(#clip0_740_11)">
<mask id="mask0_740_11" style="mask-type:luminance" maskUnits="userSpaceOnUse" x="0" y="0" width="50" height="50">
<path d="M50 0H0V50H50V0Z" fill="white"/>
</mask>
<g mask="url(#mask0_740_11)">
<path d="M29.5521 30.7708L28.7935 31.4224C28.8091 31.4405 28.8247 31.4587 28.8406 31.4772C29.3138 32.0285 29.9034 32.7153 30.5362 33.158L30.5418 33.1618C31.4144 33.7634 32.1852 33.8828 32.6354 33.8828H36.5417H36.5782L36.6146 33.8801C36.8564 33.8625 37.1785 33.7786 37.4689 33.65C37.7324 33.5332 38.2025 33.2795 38.4543 32.7831L38.4547 32.7824C38.796 32.1082 38.5399 31.4312 38.2828 30.9845C38.2828 30.9844 38.2827 30.9844 38.2827 30.9843C38.27 30.959 38.2521 30.9251 38.2281 30.8864C37.8742 30.251 37.1118 29.3829 36.5227 28.745C36.204 28.3998 35.9036 28.0881 35.6832 27.863C35.5728 27.7502 35.482 27.6587 35.4185 27.5951L35.3446 27.5213L35.3247 27.5015L35.3193 27.4962L35.3178 27.4947L35.3173 27.4943L35.3172 27.4941C35.3171 27.4941 35.3171 27.494 34.6146 28.2057L35.3171 27.494L35.3077 27.4847L35.298 27.4757C34.7747 26.9858 34.449 26.6703 34.2454 26.4167C34.1495 26.2973 34.1053 26.2209 34.085 26.1763C34.0756 26.1555 34.0722 26.1436 34.0711 26.1389C34.0701 26.1347 34.07 26.133 34.07 26.1316C34.0698 26.1266 34.0676 26.0161 34.2739 25.6734C34.4779 25.3344 34.8009 24.901 35.2898 24.2602L35.2918 24.2576L36.2371 23.0102L36.2372 23.0102L36.2445 23.0002C37.3213 21.5421 37.932 20.5231 38.2584 19.7954C38.5568 19.1302 38.7166 18.498 38.5212 17.9513C38.3176 17.3664 37.7802 17.1741 37.5494 17.1108C37.2637 17.0324 36.9465 17.013 36.6615 17.013H32.028C31.7566 17.011 31.4887 17.0742 31.2469 17.1973L31.2169 17.2126L31.1881 17.2298C30.9368 17.3797 30.7763 17.5923 30.7061 17.6906C30.6289 17.7987 30.5688 17.9042 30.5494 17.9384C30.5476 17.9416 30.5461 17.9442 30.545 17.9461L30.5054 18.0148L30.4772 18.0888C30.0598 19.1827 29.5639 20.245 28.9934 21.2673C28.0595 22.8686 27.4628 23.5956 27.1214 23.9151C27.1105 23.8724 27.1002 23.8232 27.0909 23.7667C27.0351 23.4277 27.0432 23.0134 27.0569 22.5062L27.0573 22.4927V22.4792C27.0573 22.4039 27.059 22.329 27.0609 22.2448L27.0612 22.2331C27.063 22.1555 27.0651 22.0669 27.0651 21.9792C27.0651 21.2824 27.0877 20.6902 27.1111 20.1556L27.1112 20.1517C27.13 19.6802 27.1442 19.2636 27.1393 18.9105C27.1344 18.5641 27.1112 18.2167 27.0305 17.9005C26.945 17.5657 26.7848 17.2252 26.4819 16.9492C26.1916 16.6847 25.8527 16.5555 25.5489 16.4821C25.0436 16.3551 24.662 16.2718 23.4248 16.2553L23.4248 16.2552H23.4115H22.8099C22.262 16.2552 21.6786 16.2661 21.1438 16.3202C20.6299 16.3722 20.0584 16.4726 19.5892 16.7072L19.5889 16.7073C19.2395 16.8822 18.9375 17.1388 18.7084 17.455L17.782 18.7337L19.3339 19.0246C19.4435 19.0451 19.5738 19.0811 19.6907 19.1374C19.8075 19.1937 19.8766 19.2535 19.9145 19.3059L19.9175 19.3099C19.9392 19.3395 19.9828 19.4185 20.0284 19.5679C20.0718 19.7104 20.1051 19.8769 20.1289 20.0492C20.1766 20.3946 20.1771 20.6925 20.1771 20.737V20.7669L20.1789 20.7968C20.198 21.115 20.2451 22.0086 20.1856 22.8678C20.1556 23.3017 20.1012 23.6799 20.0219 23.9546C20.0193 23.9634 20.0168 23.9719 20.0143 23.9801C19.9395 23.9136 19.8407 23.8149 19.7164 23.6692C19.3142 23.1979 18.7987 22.4183 18.1191 21.2241L18.1179 21.222C17.3991 19.9659 16.9315 18.8379 16.7314 18.3551C16.706 18.2938 16.6849 18.243 16.6682 18.2035M29.5521 30.7708L28.7943 31.4232C28.4015 30.9671 28.0964 30.6162 27.818 30.3715C27.6645 30.2366 27.5656 30.1767 27.5126 30.1503C27.3966 30.2606 27.0885 30.6675 27.0885 31.9453C27.0885 33.0855 26.1779 33.8802 25.2891 33.8802H23.5C22.7289 33.8802 19.2449 33.6231 16.1779 30.3886L16.1778 30.3884C14.3578 28.4679 12.6706 25.6363 11.4546 23.3377C10.2903 21.1367 9.50969 19.3303 9.41224 19.0963L9.41208 19.0963C9.30415 18.8359 9.24971 18.5319 9.31086 18.2131C9.37283 17.8901 9.5388 17.6301 9.74163 17.4418C10.1192 17.0914 10.61 16.9896 10.9844 16.9896H14.9297C15.4211 16.9896 15.8471 17.1495 16.1735 17.4545C16.4621 17.724 16.6017 18.0463 16.6682 18.2035M29.5521 30.7708L29.5543 30.7734C30.0614 31.3638 30.5815 31.9692 31.1094 32.3385C31.7969 32.8125 32.3646 32.8828 32.6354 32.8828H36.5417L27.4766 29.1302C28.138 29.1302 28.7943 29.8906 29.5521 30.7708ZM16.6682 18.2035C16.6683 18.204 16.6685 18.2044 16.6687 18.2048L15.7475 18.5937L16.6677 18.2025C16.6679 18.2029 16.668 18.2032 16.6682 18.2035ZM20.6795 17.3972C21.2775 17.2774 22.0457 17.2552 22.8099 17.2552H23.4115L20.6795 17.3972ZM20.6795 17.3972C20.3349 17.2115 19.9984 17.1195 19.7719 17.0725C19.7718 17.0725 19.7718 17.0725 19.7717 17.0725C19.7473 17.0674 19.7242 17.0629 19.7025 17.0588L19.5182 18.0417L20.328 18.6284C20.3686 18.5723 20.4221 18.5269 20.4838 18.496C20.4914 18.4922 20.4995 18.4884 20.508 18.4845C20.5866 18.5526 20.6598 18.6302 20.724 18.7187C21.1745 19.3333 21.1771 20.6146 21.1771 20.737C21.2161 21.388 21.3802 24.526 20.5 25.0156L20.6795 17.3972ZM1 25C1 11.745 11.745 1 25 1C38.255 1 49 11.745 49 25C49 38.255 38.255 49 25 49C11.745 49 1 38.255 1 25Z" stroke="#FFEDA8" stroke-width="2"/>
</g>
</g>
<defs>
<clipPath id="clip0_740_11">
<rect width="50" height="50" fill="white"/>
</clipPath>
</defs>
</svg>
